<svg viewBox="0 0 330 113" fill="none" xmlns="http://www.w3.org/2000/svg">
<path d="M38.3981 71.5282C47.9846 71.5282 55.756 63.7568 55.756 54.1703C55.756 44.5839 47.9846 36.8125 38.3981 36.8125C28.8117 36.8125 21.0403 44.5839 21.0403 54.1703C21.0403 63.7568 28.8117 71.5282 38.3981 71.5282Z" fill="#FC8001"/>
<path d="M38.4303 37.7783C36.3309 37.776 34.256 38.2299 32.3494 39.1087C30.4428 39.9875 28.7499 41.2701 27.3879 42.8678C26.026 44.4655 25.0276 46.3402 24.4618 48.3619C23.8959 50.3836 23.7763 52.5042 24.111 54.5767C25.9864 49.6789 31.1057 46.1614 37.1344 46.1614C42.1691 46.1614 46.572 48.6124 48.9786 52.2747H49.0229C50.4257 52.2385 51.7936 52.7149 52.8704 53.6149C52.9106 53.1762 52.9307 52.7335 52.9307 52.2828C52.9307 48.4402 51.4043 44.7551 48.6872 42.038C45.9701 39.3209 42.2849 37.7944 38.4424 37.7944" fill="#FDCC01"/>
<path d="M52.8704 53.6149C51.7936 52.715 50.4257 52.2385 49.0229 52.2748H48.9786C44.7126 52.3029 40.2253 56.0095 38.9173 60.5814C38.2331 63.0162 38.5953 65.2056 39.7222 66.7228C39.2916 66.7631 38.8489 66.7872 38.4062 66.7872C34.9565 66.7899 31.6191 65.5616 28.9942 63.3233C26.3694 61.085 24.6292 57.9835 24.0869 54.5768C23.5884 55.8933 23.3361 57.2902 23.3423 58.6979C23.3567 60.4188 23.7419 62.1164 24.4719 63.675C25.2018 65.2335 26.2593 66.6162 27.5721 67.729C29.6316 69.3693 32.037 70.52 34.6065 71.0941C37.1761 71.6682 39.8425 71.6506 42.4042 71.0427C44.966 70.4349 47.356 69.2526 49.3937 67.5853C51.4314 65.918 53.0633 63.8092 54.1663 61.4185C54.2669 61.1448 54.3594 60.8631 54.4399 60.5814C55.2448 57.6636 54.5768 55.096 52.8704 53.6149Z" fill="#FD0024"/>
<path d="M97.9331 57.9172L99.0559 53.7316C99.1103 53.5272 99.11 53.3121 99.055 53.1078C99.0001 52.9036 98.8924 52.7173 98.7428 52.5677C98.5933 52.4182 98.407 52.3105 98.2028 52.2556C97.9985 52.2006 97.7834 52.2003 97.5789 52.2546L93.3934 53.3735C93.1904 53.4293 93.0054 53.5372 92.857 53.6866C92.7086 53.836 92.6018 54.0217 92.5473 54.2251C92.4927 54.4285 92.4924 54.6426 92.5462 54.8462C92.6 55.0499 92.7062 55.2358 92.8541 55.3857L95.9168 58.4484C96.0661 58.5974 96.2518 58.7047 96.4554 58.7596C96.659 58.8146 96.8735 58.8152 97.0774 58.7614C97.2814 58.7077 97.4677 58.6015 97.6178 58.4534C97.7679 58.3052 97.8766 58.1204 97.9331 57.9172Z" fill="#FDCC01"/>
<path d="M147.093 52.798V67.0931C147.093 67.1636 147.065 67.2311 147.015 67.2809C146.965 67.3308 146.898 67.3587 146.827 67.3587H143.487C143.417 67.3577 143.351 67.3292 143.302 67.2795C143.253 67.2298 143.225 67.1629 143.225 67.0931V54.0496C143.225 49.9204 140.959 47.4936 137.072 47.4936C133.369 47.4936 130.467 50.0653 130.467 54.1422V67.0931C130.467 67.1629 130.44 67.2298 130.391 67.2795C130.342 67.3292 130.276 67.3577 130.206 67.3587H126.866C126.796 67.3577 126.729 67.3292 126.68 67.2795C126.631 67.2298 126.604 67.1629 126.604 67.0931V54.0496C126.604 49.9043 124.358 47.4896 120.45 47.4896C116.828 47.4896 113.822 49.9647 113.822 54.1381V67.0891C113.822 67.1589 113.795 67.2258 113.746 67.2755C113.697 67.3252 113.63 67.3537 113.56 67.3547H110.244C110.174 67.3537 110.107 67.3254 110.057 67.2758C110.008 67.2262 109.98 67.1592 109.979 67.0891V44.5517C109.98 44.4819 110.008 44.4154 110.058 44.3665C110.107 44.3175 110.174 44.2901 110.244 44.2901H113.536C113.606 44.2901 113.672 44.3177 113.721 44.3667C113.77 44.4158 113.798 44.4823 113.798 44.5517V46.4754C113.8 46.5278 113.817 46.5785 113.847 46.6211C113.878 46.6637 113.92 46.6964 113.97 46.7149C114.019 46.7334 114.072 46.7369 114.123 46.7251C114.174 46.7133 114.221 46.6866 114.257 46.6485C116.096 44.5597 118.744 43.8313 121.135 43.8313C124.757 43.8313 127.634 45.3687 129.184 47.9404C129.207 47.9796 129.24 48.0121 129.279 48.0347C129.319 48.0573 129.363 48.0691 129.409 48.0691C129.455 48.0691 129.499 48.0573 129.539 48.0347C129.578 48.0121 129.611 47.9796 129.634 47.9404C131.522 44.8535 134.834 43.8313 137.756 43.8313C143.298 43.8393 147.093 47.4212 147.093 52.798Z" fill="white"/>
<path d="M174.178 55.5104C174.178 62.2756 169.248 67.1815 162.978 67.1815C159.73 67.1815 157.259 66.0305 155.528 64.2155C155.492 64.1774 155.445 64.1512 155.393 64.1402C155.342 64.1293 155.288 64.1341 155.24 64.1541C155.191 64.1741 155.149 64.2084 155.121 64.2523C155.092 64.2963 155.077 64.348 155.077 64.4006V75.8786C155.077 75.948 155.05 76.0145 155.001 76.0635C154.952 76.1126 154.885 76.1402 154.816 76.1402H151.5C151.43 76.1402 151.363 76.1127 151.313 76.0638C151.264 76.0149 151.235 75.9483 151.234 75.8786V44.5717C151.235 44.502 151.264 44.4354 151.313 44.3865C151.363 44.3375 151.43 44.3101 151.5 44.3101H154.816C154.885 44.3101 154.952 44.3377 155.001 44.3867C155.05 44.4358 155.077 44.5023 155.077 44.5717V46.6202C155.077 46.6728 155.092 46.7245 155.121 46.7685C155.149 46.8124 155.191 46.8466 155.24 46.8666C155.288 46.8866 155.342 46.8915 155.393 46.8805C155.445 46.8696 155.492 46.8434 155.528 46.8053C157.259 44.9903 159.73 43.8392 162.978 43.8392C169.248 43.8392 174.178 48.7451 174.178 55.5104ZM154.86 55.5104C154.86 60.1064 158.019 63.5595 162.547 63.5595C167.191 63.5595 170.234 59.9374 170.234 55.5104C170.234 51.0834 167.119 47.4613 162.547 47.4613C157.975 47.4613 154.844 50.9345 154.844 55.5104H154.86Z" fill="white"/>
<path d="M217.727 49.043C217.71 49.0741 217.687 49.1014 217.659 49.1231C217.631 49.1448 217.599 49.1605 217.565 49.1692C217.53 49.1779 217.494 49.1794 217.459 49.1736C217.424 49.1678 217.391 49.1549 217.361 49.1356C215.241 47.898 212.834 47.235 210.379 47.2118C207.312 47.2118 205.332 48.5077 205.332 50.5361C205.332 52.327 206.942 53.152 209.67 53.4821L212.266 53.8121C217.027 54.4479 219.832 56.4522 219.832 60.1547C219.832 64.4207 216.013 67.1816 209.908 67.1816C207.211 67.1816 203.589 66.5497 200.676 64.4529C200.621 64.4126 200.584 64.3535 200.572 64.2872C200.559 64.2208 200.572 64.1522 200.607 64.0948L202.116 61.68C202.135 61.6488 202.16 61.6218 202.19 61.6009C202.22 61.58 202.253 61.5657 202.289 61.5588C202.325 61.552 202.362 61.5528 202.397 61.5612C202.433 61.5696 202.466 61.5854 202.495 61.6076C204.145 62.815 206.346 63.8171 209.928 63.8171C213.606 63.8171 215.872 62.6097 215.872 60.4002C215.872 58.7502 214.411 57.7118 211.369 57.3335L208.777 57.0277C203.754 56.4159 201.323 54.1501 201.323 50.7574C201.323 46.4633 204.885 43.8715 210.33 43.8715C213.759 43.8715 216.898 44.7569 219.064 46.1614C219.119 46.1998 219.158 46.2571 219.173 46.3224C219.189 46.3877 219.18 46.4565 219.148 46.5156L217.727 49.043Z" fill="white"/>
<path d="M237.399 49.043C237.382 49.0742 237.358 49.1016 237.33 49.1233C237.302 49.1451 237.269 49.1608 237.234 49.1695C237.2 49.1781 237.164 49.1796 237.128 49.1738C237.093 49.1679 237.059 49.1549 237.029 49.1356C234.909 47.8967 232.502 47.2335 230.047 47.2118C226.98 47.2118 225 48.5077 225 50.5361C225 52.327 226.61 53.152 229.338 53.4821L231.934 53.8121C236.695 54.4479 239.5 56.4522 239.5 60.1547C239.5 64.4207 235.681 67.1816 229.576 67.1816C226.879 67.1816 223.257 66.5497 220.343 64.4529C220.289 64.4126 220.252 64.3535 220.24 64.2872C220.227 64.2208 220.24 64.1522 220.275 64.0948L221.784 61.68C221.803 61.6488 221.828 61.6218 221.858 61.6009C221.887 61.58 221.921 61.5657 221.957 61.5588C221.993 61.552 222.03 61.5528 222.065 61.5612C222.1 61.5696 222.134 61.5854 222.163 61.6076C223.813 62.815 226.018 63.8171 229.6 63.8171C233.278 63.8171 235.54 62.6097 235.54 60.4002C235.54 58.7502 234.079 57.7118 231.037 57.3335L228.445 57.0277C223.422 56.4159 220.991 54.1501 220.991 50.7574C220.991 46.4633 224.553 43.8715 229.998 43.8715C233.427 43.8715 236.566 44.7569 238.732 46.1614C238.787 46.1992 238.827 46.2565 238.843 46.3221C238.858 46.3876 238.849 46.4567 238.816 46.5156L237.399 49.043Z" fill="white"/>
<path d="M79.1103 61.2775C79.0621 61.2299 78.997 61.2031 78.9292 61.2031C78.8614 61.2031 78.7963 61.2299 78.7481 61.2775C75.4359 64.4086 70.7594 64.3161 67.6524 61.2091C64.469 58.0257 64.4328 53.2405 67.7692 49.9203C71.021 46.6685 75.6733 46.6363 78.8568 49.6426C78.8804 49.6667 78.9085 49.6858 78.9396 49.6989C78.9707 49.712 79.0041 49.7187 79.0379 49.7187C79.0716 49.7187 79.105 49.712 79.1361 49.6989C79.1672 49.6858 79.1954 49.6667 79.219 49.6426L81.4164 47.4452C81.4415 47.4201 81.4615 47.3904 81.4752 47.3576C81.4888 47.3247 81.4958 47.2896 81.4958 47.254C81.4958 47.2185 81.4888 47.1833 81.4752 47.1505C81.4615 47.1177 81.4415 47.0879 81.4164 47.0629C76.6191 42.4548 69.6285 42.499 64.9882 47.1393C60.2875 51.84 60.3036 58.9594 65.1049 63.7607C69.8378 68.4935 76.8364 68.5901 81.5411 64.0907C81.5689 64.0651 81.5911 64.0339 81.6063 63.9993C81.6215 63.9647 81.6293 63.9273 81.6293 63.8895C81.6293 63.8517 81.6215 63.8142 81.6063 63.7796C81.5911 63.745 81.5689 63.7139 81.5411 63.6882L79.1103 61.2775Z" fill="white"/>
<path d="M87.2922 55.5023C87.3602 55.5013 87.4251 55.4738 87.4732 55.4258C87.5213 55.3777 87.5488 55.3128 87.5498 55.2448C87.6786 50.693 91.0511 47.4492 95.4459 47.4492C99.9494 47.4492 103.346 50.8218 103.346 55.4983C103.346 60.0984 100.078 63.4065 95.6995 63.5474C95.6308 63.5484 95.5653 63.5765 95.5171 63.6254C95.4689 63.6744 95.4419 63.7403 95.4419 63.809V66.9119C95.4419 66.9834 95.4703 67.052 95.5209 67.1026C95.5715 67.1531 95.64 67.1815 95.7116 67.1815C102.368 67.0487 107.278 62.0704 107.278 55.5104C107.278 48.8578 102.231 43.8392 95.4419 43.8392C88.7491 43.8392 83.7265 48.717 83.5856 55.2247C83.5851 55.2604 83.5917 55.2959 83.605 55.3291C83.6183 55.3623 83.6381 55.3925 83.6632 55.4179C83.6883 55.4434 83.7182 55.4636 83.7511 55.4774C83.7841 55.4912 83.8195 55.4983 83.8553 55.4983L87.2922 55.5023Z" fill="white"/>
<path d="M198.052 44.3102H194.735C194.666 44.3113 194.599 44.3397 194.55 44.3894C194.501 44.4391 194.474 44.5061 194.474 44.5758V46.5881C192.316 44.6806 189.526 43.6435 186.646 43.6783C179.997 43.6783 174.975 48.7251 174.975 55.5145C174.975 62.2073 179.857 67.2259 186.364 67.3708C186.436 67.3708 186.504 67.3424 186.555 67.2918C186.606 67.2413 186.634 67.1727 186.634 67.1011V63.6682C186.634 63.6344 186.628 63.6008 186.616 63.5693C186.603 63.5379 186.585 63.5092 186.561 63.4849C186.538 63.4606 186.51 63.4412 186.479 63.4278C186.448 63.4143 186.414 63.4072 186.38 63.4066C181.829 63.2819 178.585 59.9093 178.585 55.5145C178.585 51.0111 181.953 47.6143 186.634 47.6143C190.634 47.6143 194.462 50.4315 194.462 53.6029V67.1052C194.462 67.1749 194.489 67.2419 194.538 67.2916C194.587 67.3413 194.653 67.3697 194.723 67.3708H198.039C198.11 67.3698 198.177 67.3414 198.226 67.2918C198.276 67.2423 198.304 67.1753 198.305 67.1052V44.5758C198.304 44.5077 198.278 44.4425 198.231 44.3932C198.183 44.3439 198.12 44.3143 198.052 44.3102Z" fill="white"/>
<path d="M308.139 59.0601C305.414 59.0601 304.158 57.6636 304.158 54.943V38.1727H295.804V50.6246C294.844 48.5644 293.315 46.8211 291.399 45.5996C289.482 44.3781 287.256 43.7292 284.984 43.7292C282.711 43.7292 280.485 44.3781 278.568 45.5996C276.652 46.8211 275.123 48.5644 274.164 50.6246V43.9761H265.929V55.6956C265.929 57.8084 264.819 59.2412 262.955 59.2412C261.092 59.2412 259.985 57.8084 259.985 55.6956V43.9761H251.634V55.8002C251.634 63.0444 256.061 67.5881 262.955 67.5881C268.481 67.5881 272.421 64.5254 273.713 59.5591C274.519 61.8882 276.027 63.9105 278.029 65.3483C280.031 66.786 282.429 67.5688 284.894 67.5891C287.359 67.6094 289.769 66.8662 291.795 65.4616C293.82 64.0569 295.361 62.0597 296.206 59.7442C297.413 65.0566 301.438 67.411 306.847 67.411H308.96V59.0601H308.139ZM284.994 59.2412C284.284 59.242 283.59 59.0322 283 58.6385C282.41 58.2448 281.949 57.6848 281.677 57.0294C281.406 56.374 281.334 55.6527 281.472 54.9567C281.611 54.2608 281.952 53.6215 282.454 53.1197C282.956 52.618 283.595 52.2764 284.291 52.1382C284.987 51.9999 285.708 52.0713 286.364 52.3432C287.019 52.6151 287.579 53.0753 287.973 53.6656C288.367 54.2559 288.576 54.9498 288.575 55.6593C288.572 56.6083 288.194 57.5175 287.523 58.1886C286.852 58.8596 285.943 59.238 284.994 59.2412Z" fill="white"/>
<path d="M244.832 67.266C244.302 67.266 243.847 67.0762 243.468 66.6966C243.088 66.3169 242.898 65.8621 242.898 65.332C242.898 64.802 243.088 64.3471 243.468 63.9675C243.847 63.5878 244.302 63.398 244.832 63.398C245.362 63.398 245.817 63.5878 246.197 63.9675C246.576 64.3471 246.766 64.802 246.766 65.332C246.766 65.683 246.677 66.0053 246.498 66.299C246.326 66.5927 246.093 66.8291 245.799 67.0082C245.513 67.1801 245.19 67.266 244.832 67.266Z" fill="white"/>
</svg>
